<svg width="16" height="16" viewBox="0 0 16 16" fill="none" xmlns="http://www.w3.org/2000/svg">
<g clip-path="url(#clip0_215_12)">
<path d="M11.1762 10.0873C11.1762 10.9893 10.8833 11.8225 10.39 12.4984L12.8783 14.9881C13.1239 15.2338 13.1239 15.6326 12.8783 15.8783C12.6326 16.1239 12.2336 16.1239 11.9879 15.8783L9.49964 13.3886C8.82358 13.8838 7.99022 14.1746 7.08809 14.1746C4.82981 14.1746 3 12.3451 3 10.0873C3 7.82946 4.82981 6 7.08809 6C9.34634 6 11.1762 7.82946 11.1762 10.0873ZM7.08809 12.917C7.45976 12.917 7.82779 12.8438 8.17118 12.7016C8.51453 12.5593 8.82652 12.3509 9.08937 12.0882C9.35215 11.8254 9.56061 11.5135 9.70285 11.1701C9.84509 10.8268 9.91831 10.4589 9.91831 10.0873C9.91831 9.7157 9.84509 9.34774 9.70285 9.00443C9.56061 8.66111 9.35215 8.34918 9.08937 8.08642C8.82652 7.82366 8.51453 7.61523 8.17118 7.47302C7.82779 7.33082 7.45976 7.25763 7.08809 7.25763C6.71642 7.25763 6.34839 7.33082 6.00502 7.47302C5.66164 7.61523 5.34963 7.82366 5.08683 8.08642C4.82402 8.34918 4.61554 8.66111 4.47331 9.00443C4.33108 9.34774 4.25787 9.7157 4.25787 10.0873C4.25787 10.4589 4.33108 10.8268 4.47331 11.1701C4.61554 11.5135 4.82402 11.8254 5.08683 12.0882C5.34963 12.3509 5.66164 12.5593 6.00502 12.7016C6.34839 12.8438 6.71642 12.917 7.08809 12.917Z" fill="black"/>
</g>
<defs>
<clipPath id="clip0_215_12">
<rect width="16" height="16" fill="white"/>
</clipPath>
</defs>
</svg>
